<svg width="15" height="14" viewBox="0 0 15 14" fill="none" xmlns="http://www.w3.org/2000/svg">
<path d="M7.55343 3.4224C5.58821 3.4224 4.00304 5.00674 4.00304 6.97094C4.00304 8.93515 5.58821 10.5195 7.55343 10.5195C9.51866 10.5195 11.1038 8.93515 11.1038 6.97094C11.1038 5.00674 9.51866 3.4224 7.55343 3.4224ZM7.55343 9.27796C6.28345 9.27796 5.24522 8.24336 5.24522 6.97094C5.24522 5.69853 6.28036 4.66393 7.55343 4.66393C8.82651 4.66393 9.86165 5.69853 9.86165 6.97094C9.86165 8.24336 8.82342 9.27796 7.55343 9.27796ZM12.0772 3.27724C12.0772 3.73741 11.7064 4.10493 11.2491 4.10493C10.7886 4.10493 10.4209 3.73432 10.4209 3.27724C10.4209 2.82016 10.7917 2.44956 11.2491 2.44956C11.7064 2.44956 12.0772 2.82016 12.0772 3.27724ZM14.4286 4.11728C14.3761 3.00855 14.1227 2.02645 13.3101 1.21729C12.5005 0.408139 11.5179 0.154892 10.4086 0.0993011C9.26529 0.0344452 5.83849 0.0344452 4.6952 0.0993011C3.58899 0.151804 2.60637 0.405051 1.79371 1.21421C0.98104 2.02336 0.730752 3.00547 0.675132 4.11419C0.610242 5.25689 0.610242 8.68191 0.675132 9.82461C0.727662 10.9333 0.98104 11.9154 1.79371 12.7246C2.60637 13.5338 3.5859 13.787 4.6952 13.8426C5.83849 13.9074 9.26529 13.9074 10.4086 13.8426C11.5179 13.7901 12.5005 13.5368 13.3101 12.7246C14.1196 11.9154 14.373 10.9333 14.4286 9.82461C14.4935 8.68191 14.4935 5.25998 14.4286 4.11728ZM12.9516 11.0507C12.7106 11.656 12.244 12.1224 11.6353 12.3663C10.7238 12.7277 8.56077 12.6443 7.55343 12.6443C6.5461 12.6443 4.38002 12.7246 3.47157 12.3663C2.86593 12.1254 2.39934 11.6591 2.15523 11.0507C1.79371 10.1396 1.87714 7.97776 1.87714 6.97094C1.87714 5.96413 1.7968 3.79918 2.15523 2.8912C2.39625 2.28587 2.86284 1.81953 3.47157 1.57555C4.38311 1.21421 6.5461 1.29759 7.55343 1.29759C8.56077 1.29759 10.7268 1.21729 11.6353 1.57555C12.2409 1.81644 12.7075 2.28279 12.9516 2.8912C13.3132 3.80227 13.2297 5.96413 13.2297 6.97094C13.2297 7.97776 13.3132 10.1427 12.9516 11.0507Z" fill="currentColor"/>
</svg>
